<?xml version="1.0" encoding="utf-8"?>
<!-- Generator: Adobe Illustrator 19.0.0, SVG Export Plug-In . SVG Version: 6.00 Build 0)  -->
<svg version="1.1" id="Layer_4" xmlns="http://www.w3.org/2000/svg" xmlns:xlink="http://www.w3.org/1999/xlink" x="0px" y="0px"
	 viewBox="0 0 100 100" style="enable-background:new 0 0 100 100;" xml:space="preserve">
<style type="text/css">
	.st0{fill:#FFFFFF;}
</style>
<path id="XMLID_8_" class="st0" d="M66.4,15.7c-0.2-0.8-0.8-3.1-3-5c-2.2-1.9-4.6-2.3-5.4-2.4c-5.3,0-10.5,0-15.8,0
	c-0.8,0.1-3.2,0.4-5.4,2.4c-2.2,1.9-2.8,4.2-3,5H17.6v4c21.7,0,43.4,0,65.1,0v-4L66.4,15.7z M39.6,15.7c0-0.3,0-0.9,0.5-1.5
	c0.7-1,1.9-1.1,2.1-1.1c5.3,0,10.6,0,15.9,0c0.2,0,1.4,0.1,2.1,1.1c0.4,0.6,0.5,1.2,0.5,1.5H39.6z"/>
<path id="XMLID_9_" class="st0" d="M20.1,21.3c0,2.2,0,4.4,0,6.6c0.1,0,1.4,0.1,2.1,1.1c0.3,0.5,0.4,1.1,0.4,1.3c0,19,0,38.1,0,57.1
	c0.1,0.5,0.5,1.7,1.6,2.8c1,1,2.1,1.3,2.6,1.5c15.6,0,31.1,0,46.7,0c0.5-0.1,1.6-0.5,2.6-1.5c1.1-1.1,1.5-2.2,1.6-2.8
	c0-19,0-38.1,0-57.1c0-0.3,0-0.8,0.4-1.3c0.7-1,1.9-1.1,2.1-1.1c0-2.2,0-4.4,0-6.6C60.1,21.3,40.1,21.3,20.1,21.3z M65.6,77.6h-5.3
	l0-42.3c-2.4,0-4.8,0-7.3,0l0,42.3c-2,0-4,0-5.9,0V35.2c-2.4,0-4.8,0-7.3,0v42.3h-5.3V35.2c1.8,0,3.5,0,5.3,0c2.4,0,4.8,0,7.3,0
	c2,0,4,0,5.9,0c2.4,0,4.8,0,7.3,0c1.8,0,3.5,0,5.3,0L65.6,77.6z"/>
</svg>
